<svg width="24" height="24" viewBox="0 0 24 24" fill="none" xmlns="http://www.w3.org/2000/svg">
<g clip-path="url(#clip0_328_126)">
<path d="M23.6173 11.9958H19.9119C19.9146 9.90665 19.0844 7.9026 17.6053 6.42703L20.2255 3.80688C22.4006 5.97664 23.6212 8.92363 23.6173 11.9958Z" fill="#FEDB41"/>
<path d="M19.9172 11.9958H23.6173C23.6214 15.0559 22.4103 17.9921 20.2503 20.1596L17.6301 17.5394C19.0941 16.0661 19.9145 14.0728 19.9119 11.9958H19.9172Z" fill="#F4B844"/>
<path d="M20.2502 20.1596C18.0788 22.3504 15.1211 23.5809 12.0365 23.5768V19.8707C14.1379 19.8734 16.1527 19.0336 17.6301 17.5394L20.2502 20.1596Z" fill="#FEDB41"/>
<path d="M20.2254 3.80686L17.6053 6.42701C16.1297 4.94793 14.1257 4.1178 12.0365 4.12049V0.415049C15.1087 0.411123 18.0557 1.63174 20.2254 3.80686Z" fill="#F4B844"/>
<path d="M6.46821 17.5642C3.81149 14.9074 3.40138 10.744 5.4887 7.62012C7.57602 4.49606 11.5796 3.28164 15.0507 4.7194C18.5219 6.15736 20.4939 9.84689 19.7609 13.5319C19.0279 17.2169 15.7937 19.8709 12.0366 19.8707C9.94741 19.8734 7.94336 19.0432 6.46821 17.5642ZM13.9861 13.0209L15.9356 11.1206L13.2413 10.7291L12.0366 8.28765L10.8317 10.7291L8.13736 11.1206L10.0869 13.0209L9.62676 15.7041L12.0366 14.4372L14.4462 15.7041L13.9861 13.0209Z" fill="#00EFD1"/>
<path d="M15.9356 11.1207L13.9861 13.021L14.4462 15.7042L12.0366 14.4373L9.62674 15.7042L10.0868 13.021L8.13733 11.1207L10.8316 10.7292L12.0366 8.28772L13.2413 10.7292L15.9356 11.1207Z" fill="#00ACEA"/>
<path d="M12.0366 19.8765V23.5768C8.96437 23.5807 6.01716 22.3599 3.84741 20.185L6.46818 17.5642C7.94333 19.0433 9.94739 19.8734 12.0366 19.8707V19.8765Z" fill="#F4B844"/>
<path d="M12.0365 4.11512V4.12049C9.95955 4.1178 7.96624 4.93822 6.49295 6.40222L3.8728 3.78207C6.04028 1.62203 8.97653 0.410918 12.0365 0.41505V4.11512Z" fill="#FEDB41"/>
<path d="M6.49295 6.40225C4.99879 7.87968 4.15895 9.89448 4.16163 11.9958H0.455577C0.451445 8.91146 1.68198 5.95351 3.8728 3.7821L6.49295 6.40225Z" fill="#F4B844"/>
<path d="M6.46816 17.5642L3.84739 20.185C1.67247 18.0152 0.45165 15.0683 0.455576 11.9958H4.16163C4.15895 14.085 4.98908 16.0891 6.46816 17.5642Z" fill="#FEDB41"/>
<path d="M12.0366 23.9999C16.8917 23.9999 21.2689 21.0752 23.1268 16.5897C24.9848 12.1039 23.9578 6.94085 20.5247 3.50772C15.8354 -1.17247 8.24104 -1.16876 3.55651 3.51598C-1.12823 8.20072 -1.13195 15.7951 3.54825 20.4841C5.79465 22.7425 8.85114 24.0086 12.0366 23.9999ZM3.87799 4.38558L5.90126 6.40844C4.60255 7.82574 3.84121 9.65273 3.74907 11.5727H0.887191C0.980576 8.89388 2.04335 6.33984 3.87799 4.38558ZM20.3245 11.5727C20.2325 9.66513 19.4801 7.84867 18.1962 6.43467L20.2193 4.4114C22.0389 6.36319 23.0923 8.90627 23.1857 11.5727H20.3245ZM6.47561 18.1551C7.8894 19.4391 9.70566 20.1916 11.6134 20.2833V23.1452C8.9468 23.0518 6.40372 21.9983 4.45193 20.179L6.47561 18.1551ZM12.4597 20.2833C14.3794 20.1912 16.2066 19.4298 17.624 18.1315L19.6468 20.1544C17.6925 21.989 15.1385 23.0518 12.4597 23.1452V20.2833ZM17.3297 17.2415C14.8249 19.7689 10.8825 20.173 7.91709 18.2059C4.95171 16.2388 3.7908 12.4497 5.14509 9.15916C6.49958 5.86858 9.99139 3.99468 13.4824 4.68495C16.9732 5.37542 19.489 8.43749 19.4888 11.9958C19.4941 13.9617 18.7173 15.849 17.3297 17.2415ZM17.5977 5.83635C16.1837 4.55231 14.3675 3.79986 12.4597 3.70792V0.846663C15.1261 0.940048 17.6692 1.99352 19.621 3.81287L17.5977 5.83635ZM11.6134 3.70792C9.71785 3.79965 7.91234 4.54301 6.50185 5.81259L4.47838 3.78911C6.42686 1.98443 8.9592 0.940048 11.6134 0.846663V3.70792ZM3.74907 12.419C3.8408 14.3267 4.59325 16.143 5.87729 17.5568L3.85361 19.5805C2.03425 17.6287 0.980782 15.0856 0.887191 12.419H3.74907ZM20.2433 19.554L18.2198 17.5305C19.4894 16.1201 20.2327 14.3145 20.3245 12.419H23.1857C23.0923 15.0732 22.0482 17.6055 20.2433 19.554Z" fill="#083863"/>
<path d="M15.9963 10.7018L13.5223 10.3423L12.4159 8.10044C12.3446 7.95603 12.1975 7.8645 12.0366 7.8645C11.8754 7.8645 11.7283 7.95603 11.657 8.10044L10.5507 10.3423L8.0766 10.7018C7.91711 10.7249 7.78467 10.8365 7.73509 10.9898C7.6853 11.1429 7.72682 11.3111 7.84211 11.4235L9.63233 13.1686L9.20982 15.6324C9.18255 15.7913 9.24784 15.9516 9.37821 16.0462C9.50837 16.141 9.68109 16.1534 9.82364 16.0784L12.0366 14.9155L14.2493 16.0787C14.3919 16.1537 14.5646 16.141 14.6949 16.0464C14.8251 15.9518 14.8904 15.7913 14.8633 15.6326L14.4406 13.1686L16.2306 11.4235C16.3461 11.3111 16.3877 11.1429 16.3379 10.9898C16.2881 10.8365 16.1556 10.7249 15.9961 10.7018H15.9963ZM13.6906 12.7178C13.5911 12.8151 13.5456 12.9552 13.5692 13.0924L13.8844 14.9306L12.2335 14.0628C12.1101 13.9979 11.9628 13.9979 11.8397 14.0628L10.1887 14.9306L10.504 13.0924C10.5275 12.9552 10.4821 12.8151 10.3825 12.7178L9.04681 11.416L10.8926 11.1478C11.0306 11.1278 11.1496 11.0412 11.2114 10.9162L12.0366 9.24379L12.862 10.9162C12.9235 11.0412 13.0427 11.1278 13.1805 11.1478L15.0263 11.416L13.6906 12.7178Z" fill="#083863"/>
</g>
<defs>
<clipPath id="clip0_328_126">
<rect width="24" height="24" fill="white"/>
</clipPath>
</defs>
</svg>
