<svg width="24" height="24" viewBox="0 0 24 24" fill="none" xmlns="http://www.w3.org/2000/svg">
<g clip-path="url(#clip0_328_61)">
<path d="M18.6966 18.9543V22.0453C18.6966 22.8988 18.0048 23.5906 17.1513 23.5906H6.84875C5.99527 23.5906 5.30347 22.8988 5.30347 22.0453V18.9543H18.6966Z" fill="#00ACEA"/>
<path d="M18.6966 4.27283V18.9544H5.30347V4.27283H6.8557L6.86385 4.2764C6.78023 4.45218 6.73693 4.64445 6.73733 4.8393V16.018C6.73752 16.7444 7.32644 17.3331 8.0528 17.3329H15.0225C15.6162 17.3329 16.1364 16.9352 16.2921 16.3622C16.8651 16.2069 17.2627 15.6867 17.2627 15.093V4.27283H18.6966Z" fill="#00EFD1"/>
<path d="M18.6966 1.95471V4.27284H17.2627V3.91432C17.2626 3.18796 16.6736 2.59924 15.9473 2.59944H8.97759C8.38311 2.59924 7.86233 2.99808 7.7074 3.5721L7.70442 3.5711C7.33498 3.6728 7.02811 3.93021 6.86385 4.27641L6.8557 4.27284H5.30347V1.95471C5.30347 1.10123 5.99527 0.409424 6.84875 0.409424H17.1513C18.0048 0.409424 18.6966 1.10123 18.6966 1.95471Z" fill="#00ACEA"/>
<path d="M17.2628 4.27276V15.0929C17.263 15.4419 17.1244 15.7764 16.8777 16.0231C16.631 16.2698 16.2963 16.4082 15.9473 16.408H8.97763C8.25127 16.408 7.66235 15.8193 7.66235 15.0929V3.91425C7.66215 3.18769 8.25127 2.59897 8.97763 2.59937H15.9473C16.6737 2.59917 17.2626 3.18788 17.2628 3.91425V4.27276ZM12.5242 11.6995C14.4453 10.9211 15.0936 9.51919 14.8896 8.46907C14.7478 7.76495 14.2475 7.30772 13.5988 7.30772C13.2407 7.30772 12.8452 7.45629 12.4623 7.73397C12.0734 7.44358 11.6843 7.29561 11.3198 7.29561C10.6709 7.29561 10.1706 7.75264 10.0349 8.46907C9.83092 9.5313 10.4858 10.9397 12.4007 11.6995C12.4206 11.7064 12.4412 11.7106 12.4623 11.7116C12.4835 11.7106 12.5044 11.7064 12.5242 11.6995Z" fill="#FEDB41"/>
<path d="M15.9472 16.408C16.0638 16.4082 16.1796 16.3927 16.2921 16.3622C16.1363 16.9352 15.6161 17.3328 15.0225 17.3328H8.05278C7.32642 17.333 6.7375 16.7443 6.7373 16.0179V4.83925C6.7373 4.24696 7.13336 3.72776 7.7044 3.57104L7.70738 3.57204C7.67739 3.68366 7.66209 3.79867 7.66229 3.91427V15.093C7.66229 15.8193 8.25121 16.408 8.97757 16.408H15.9472Z" fill="#F4B844"/>
<path d="M14.8896 8.46912C15.0936 9.51924 14.4453 10.9211 12.5242 11.6995C12.5043 11.7065 12.4835 11.7106 12.4622 11.7116C12.4412 11.7106 12.4205 11.7065 12.4006 11.6995C10.4857 10.9398 9.83085 9.53135 10.0348 8.46912C10.1705 7.75269 10.6708 7.29565 11.3197 7.29565C11.6842 7.29565 12.0733 7.44363 12.4622 7.73402C12.8452 7.45634 13.2406 7.30777 13.5987 7.30777C14.2474 7.30777 14.7478 7.765 14.8896 8.46912Z" fill="#00ACEA"/>
<path d="M19.0678 1.95207C19.0678 0.873941 18.1938 0 17.1157 0H6.83341C5.75529 0 4.88135 0.873941 4.88135 1.95207V22.0479C4.88135 23.1261 5.75529 24 6.83341 24H17.1157C18.1938 24 19.0678 23.1261 19.0678 22.0479V1.95207ZM5.69491 4.67797H6.33825C6.33348 4.72881 6.30508 4.78542 6.30508 4.83925V16.0179C6.30508 16.9674 7.10314 17.7458 8.05276 17.7458H15.0224C15.7138 17.7432 16.3359 17.3245 16.5987 16.6849C17.2363 16.4138 17.6486 15.786 17.6441 15.093V4.67797H18.3051V18.5593H5.69491V4.67797ZM8.97755 16.8305H15.4572C15.3198 16.8911 15.1724 16.9255 15.0224 16.9322H8.05276C7.55163 16.9322 7.11864 16.5187 7.11864 16.0179V4.83925C7.12539 4.70319 7.16233 4.57051 7.22669 4.45054C7.23384 4.43525 7.27118 4.42095 7.27118 4.40625V15.093C7.27118 16.0424 8.02793 16.8305 8.97755 16.8305ZM16.1733 15.9695C16.1729 15.9695 16.179 15.9776 16.1784 15.9776C16.1035 16.0013 16.0257 16.0144 15.9472 16.017H8.97755C8.47662 16.017 8.08474 15.5939 8.08474 15.093V3.91426C8.08196 3.83362 8.0899 3.75298 8.10817 3.67452C8.21166 3.27867 8.56838 3.00179 8.97755 3H15.9472C16.4483 3 16.8305 3.41353 16.8305 3.91426V15.093C16.8359 15.5005 16.5659 15.8604 16.1733 15.9695ZM6.84871 0.813559H17.1513C17.7833 0.814155 18.2973 1.32263 18.3051 1.95465V3.86441H17.6683C17.6373 2.93406 16.878 2.19379 15.9472 2.18644H8.97755C8.28257 2.18803 7.65631 2.60593 7.38817 3.24729C7.08586 3.38215 6.82487 3.59527 6.63201 3.86441H5.69491V1.95465C5.70265 1.32263 6.21669 0.814155 6.84871 0.813559ZM17.1513 23.1864H6.84871C6.21669 23.1858 5.70265 22.6774 5.69491 22.0454V19.3729H18.3051V22.0454C18.2973 22.6774 17.7833 23.1858 17.1513 23.1864Z" fill="#083863"/>
<path d="M13.017 20.8983H10.9831C10.7584 20.8983 10.5763 21.0805 10.5763 21.3051C10.5763 21.5297 10.7584 21.7119 10.9831 21.7119H13.017C13.2416 21.7119 13.4238 21.5297 13.4238 21.3051C13.4238 21.0805 13.2416 20.8983 13.017 20.8983Z" fill="#083863"/>
<path d="M15.2884 8.38887C15.1064 7.48494 14.443 6.90099 13.5987 6.90099C13.232 6.90099 12.8447 7.01897 12.4659 7.2446C12.0832 7.00824 11.6987 6.88867 11.3197 6.88867C10.4694 6.88867 9.80818 7.47938 9.63517 8.39245C9.4002 9.61696 10.1176 11.2314 12.2506 12.0775C12.2576 12.0803 12.2649 12.0829 12.2721 12.0852C12.3333 12.1063 12.3974 12.1174 12.4622 12.1184C12.5261 12.1176 12.5897 12.1067 12.6503 12.0862C12.6594 12.0833 12.6683 12.0799 12.6773 12.0763C13.6388 11.6868 14.3884 11.1098 14.8449 10.4079C15.26 9.7699 15.4179 9.05386 15.2892 8.39145C15.2888 8.39066 15.2886 8.38986 15.2884 8.38887ZM12.4614 11.2852C10.8295 10.6043 10.2652 9.42548 10.4342 8.54499C10.5341 8.01745 10.8652 7.70243 11.3195 7.70243C11.5944 7.70243 11.9054 7.82597 12.2187 8.05995C12.3615 8.16641 12.5567 8.1678 12.7007 8.06313C13.011 7.83829 13.3296 7.71455 13.5985 7.71455C14.0446 7.71455 14.3862 8.03373 14.4903 8.54797C14.6583 9.41694 14.0937 10.5904 12.4614 11.2852Z" fill="#083863"/>
<path d="M14.8053 3.54761C14.5805 3.54761 14.3986 3.72974 14.3986 3.95439C14.3986 4.17903 14.5805 4.36117 14.8053 4.36117C15.2616 4.36156 15.6314 4.7312 15.632 5.18744C15.632 5.41208 15.8141 5.59422 16.0388 5.59422C16.2634 5.59422 16.4456 5.41208 16.4456 5.18744C16.4444 4.28211 15.7107 3.5484 14.8053 3.54761Z" fill="#083863"/>
<path d="M10.1196 14.646C9.66336 14.6456 9.29353 14.276 9.29293 13.8197C9.29293 13.5951 9.11079 13.413 8.88615 13.413C8.66131 13.413 8.47937 13.5951 8.47937 13.8197C8.48036 14.7253 9.21427 15.4588 10.1196 15.4596C10.3442 15.4596 10.5264 15.2774 10.5264 15.0528C10.5264 14.8282 10.3442 14.646 10.1196 14.646Z" fill="#083863"/>
</g>
<defs>
<clipPath id="clip0_328_61">
<rect width="24" height="24" fill="white"/>
</clipPath>
</defs>
</svg>
