<svg width="25" height="24" viewBox="0 0 25 24" fill="none" xmlns="http://www.w3.org/2000/svg">
<g clip-path="url(#clip0_328_90)">
<path d="M23.4634 13.636V22.554C23.4632 23.1333 22.9935 23.6029 22.4141 23.6027H16.8539C16.2745 23.6029 15.8048 23.1333 15.8048 22.554V13.636C15.8046 13.0566 16.2745 12.5867 16.8539 12.5869H22.4141C22.9936 12.5867 23.4634 13.0566 23.4634 13.636ZM19.6832 19.8468C21.2161 19.2256 21.7333 18.107 21.5703 17.2695C21.4572 16.7078 21.0582 16.3428 20.5405 16.3428C20.2552 16.3428 19.9397 16.4615 19.634 16.6834C19.3236 16.4513 19.013 16.3332 18.7222 16.3332C18.2049 16.3332 17.8058 16.6977 17.6973 17.2695C17.5347 18.1172 18.0574 19.2407 19.5848 19.8468C19.6165 19.8596 19.6517 19.8596 19.6832 19.8468Z" fill="#FEDB41"/>
<path d="M21.5703 17.2695C21.7332 18.1071 21.216 19.2256 19.6831 19.8468C19.6517 19.8596 19.6164 19.8596 19.5848 19.8468C18.0573 19.2407 17.5347 18.1172 17.6972 17.2695C17.8057 16.6977 18.2048 16.3333 18.7222 16.3333C19.013 16.3333 19.3236 16.4513 19.634 16.6834C19.9396 16.4615 20.2551 16.3429 20.5404 16.3429C21.0582 16.3429 21.4571 16.7079 21.5703 17.2695Z" fill="#00ACEA"/>
<path d="M17.9378 2.8551C18.6288 3.72976 18.575 4.97866 17.8109 5.79042C17.0469 6.60198 15.8035 6.73156 14.8887 6.09459V5.31975C14.8887 5.25515 14.8872 5.19111 14.8848 5.12689L17.9378 2.8551Z" fill="#4B5D63"/>
<path d="M17.9378 2.85511L14.8848 5.1269C14.8571 4.37749 14.6575 3.64446 14.3015 2.98432C15.0183 1.98855 16.4505 1.70227 17.4591 2.40516C17.6397 2.53098 17.8011 2.68259 17.9378 2.85511Z" fill="#4B5D63"/>
<path d="M14.3584 14.6268V13.636C14.3582 13.0566 14.8281 12.5867 15.4075 12.5869H16.8539C16.2746 12.5867 15.8047 13.0566 15.8049 13.636V22.554C15.8049 23.1333 16.2746 23.6029 16.8539 23.6027H15.4075C14.8281 23.6029 14.3584 23.1333 14.3584 22.554V14.6268Z" fill="#00ACEA"/>
<path d="M15.6105 7.26927C15.9062 7.56497 15.9945 8.00984 15.8344 8.39613C15.6743 8.78261 15.2973 9.03442 14.8792 9.03442H14.8767C14.8848 8.9201 14.889 8.80483 14.8888 8.68862V6.9668C15.1598 6.96849 15.4191 7.07717 15.6105 7.26927Z" fill="#EDB288"/>
<path d="M7.41091 12.9874C6.03187 12.1252 5.14779 10.6561 5.03196 9.03377C5.02367 8.91944 5.01972 8.80437 5.0199 8.68854V6.25327C5.31485 6.32898 10.5462 7.6099 12.7966 3.72327C12.7966 3.72327 13.2151 5.39876 14.8887 6.2431V8.68854C14.8887 8.80474 14.8845 8.92001 14.8766 9.03433C14.7913 10.2341 14.2835 11.3649 13.4431 12.2256C13.2149 12.4603 12.9644 12.672 12.6949 12.8577C11.119 13.9568 9.03875 14.0079 7.41091 12.9874Z" fill="#F7CAA5"/>
<path d="M14.3014 2.98427C14.6574 3.64441 14.857 4.37744 14.8847 5.12685C14.8872 5.19108 14.8887 5.25511 14.8887 5.31971V6.24316C13.2151 5.39882 12.7966 3.72332 12.7966 3.72332C10.5462 7.60996 5.31485 6.32904 5.0199 6.25333V5.31971C5.01915 4.77314 5.10974 4.23015 5.28791 3.71334C5.38773 3.7431 9.57666 4.9596 12.0078 0.845829L12.0131 0.834717C12.9889 1.28391 13.7919 2.03841 14.3014 2.98427Z" fill="#4B5D63"/>
<path d="M12.6949 14.6268H14.3583V20.9764H9.9895V16.311L12.6949 14.6268Z" fill="#00EFD1"/>
<path d="M12.695 14.583V14.6269L9.98961 16.311L7.41101 14.6269V12.9876C9.03885 14.008 11.1191 13.957 12.695 12.8578V14.583Z" fill="#EDB288"/>
<path d="M12.0131 0.834702L12.0078 0.845814C9.57671 4.95959 5.38779 3.74308 5.28796 3.71333C5.74243 2.39625 6.73198 1.33249 8.0129 0.784226C9.29363 0.235962 10.7465 0.254419 12.0131 0.834702Z" fill="#4B5D63"/>
<path d="M7.41097 14.6268L9.98957 16.311V20.9764H1.6217V17.9972C1.6217 16.1358 3.13051 14.6268 4.9919 14.6268H7.41097Z" fill="#00EFD1"/>
<path d="M5.0199 8.68863C5.0199 8.80446 5.02386 8.91954 5.03196 9.03386C4.46674 9.02671 3.96387 8.56659 3.96387 8.00062C3.96368 7.42938 4.42681 6.96624 4.99806 6.96643H5.0199V8.68863Z" fill="#EDB288"/>
<path d="M9.0767 8.64342C9.0767 8.43021 8.90418 8.25769 8.69098 8.25769C8.47796 8.25769 8.30525 8.43021 8.30525 8.64342C8.30563 8.82799 8.19432 8.99467 8.02368 9.0653C7.85285 9.13593 7.65641 9.09657 7.52608 8.96567C7.44019 8.88035 7.39217 8.76433 7.39254 8.64342C7.39254 8.43021 7.21983 8.25769 7.00682 8.25769C6.7938 8.25769 6.62109 8.43021 6.62109 8.64342C6.62109 9.32145 7.17086 9.87122 7.8489 9.87122C8.52712 9.87122 9.0767 9.32145 9.0767 8.64342Z" fill="#083863"/>
<path d="M12.0595 9.87141C12.7374 9.87065 13.2868 9.32126 13.2875 8.64342C13.2875 8.43021 13.1148 8.25769 12.9018 8.25769C12.6888 8.25769 12.5161 8.43021 12.5161 8.64342C12.5159 8.89542 12.3115 9.09958 12.0595 9.09996C11.8075 9.09939 11.6037 8.89523 11.6034 8.64342C11.6034 8.43021 11.4306 8.25769 11.2176 8.25769C11.0046 8.25769 10.8319 8.43021 10.8319 8.64342C10.8323 9.32126 11.3815 9.87084 12.0595 9.87141Z" fill="#083863"/>
<path d="M21.9486 17.1932C21.797 16.4425 21.2446 15.9571 20.5408 15.9571C20.2217 15.9648 19.9104 16.056 19.6379 16.2215C19.3634 16.0485 19.0468 15.9537 18.7225 15.9475C18.0138 15.9475 17.4625 16.4383 17.3186 17.197C17.1265 18.1986 17.709 19.5172 19.4427 20.2052C19.4497 20.208 19.4565 20.2105 19.4635 20.2127C19.5738 20.2519 19.6944 20.2519 19.8049 20.2127C19.8126 20.2101 19.8206 20.2072 19.8283 20.2042C21.5612 19.5021 22.1421 18.1873 21.9492 17.1958L21.9486 17.1932ZM19.6332 19.4497C18.3814 18.918 17.9471 18.0153 18.0763 17.3414C18.1503 16.9516 18.3918 16.719 18.7223 16.719C18.9284 16.719 19.1638 16.8135 19.4034 16.9922C19.5386 17.0934 19.7239 17.0947 19.8607 16.9954C20.0978 16.8233 20.3392 16.7286 20.5406 16.7286C20.8704 16.7286 21.1137 16.9587 21.1921 17.3444C21.3207 18.0089 20.8856 18.9077 19.6332 19.4495V19.4497Z" fill="#083863"/>
<path d="M22.4142 12.1873H15.4075C14.6162 12.1873 13.9891 12.8449 13.9891 13.636V14.2605H13.073V13.0553C13.3048 12.8898 13.5201 12.702 13.7158 12.4948C14.5437 11.6461 15.0743 10.5519 15.2274 9.37625C15.7649 9.24007 16.1738 8.8035 16.2748 8.25825C16.3755 7.71299 16.1497 7.15908 15.6968 6.83965C16.9165 7.06547 18.1283 6.40929 18.6061 5.26454C19.0839 4.11999 18.698 2.79688 17.6796 2.08872C17.1022 1.68962 16.3878 1.54177 15.6994 1.67888C15.2005 1.77117 14.7372 2.00076 14.3612 2.34147C13.8145 1.53537 13.0585 0.893118 12.1744 0.484227C10.152 -0.442794 7.76623 -0.0145032 6.19263 1.55816C5.62176 2.12996 5.18801 2.82382 4.92395 3.58736C4.73184 4.14466 4.63428 4.73022 4.63522 5.31973V6.62795C4.01238 6.79275 3.57862 7.35627 3.57862 8.00059C3.57862 8.64378 4.0653 9.20824 4.68834 9.37173C4.88817 10.9261 5.74701 12.3195 7.04601 13.196V14.2605H4.99194C2.92093 14.2605 1.21191 15.926 1.21191 17.9972V20.9764C1.21191 21.1895 1.40873 21.3482 1.62175 21.3482H13.9891V22.554C13.9891 23.3447 14.6162 24.0001 15.4075 24.0001H22.4142C23.2054 24.0001 23.825 23.345 23.825 22.554V13.636C23.825 12.8449 23.2054 12.1873 22.4142 12.1873ZM10.0009 15.8535L7.81746 14.418V13.6317C9.2466 14.2944 10.9019 14.2592 12.3015 13.536V14.4125L10.0009 15.8535ZM15.2909 8.51307V7.48717C15.2909 7.50412 15.3259 7.52202 15.3459 7.54198C15.4691 7.6629 15.5389 7.82807 15.5399 8.00059C15.5372 8.20005 15.4459 8.38783 15.2909 8.51307ZM17.7098 5.31483C17.167 6.09476 16.123 6.33885 15.2909 5.88061V5.31784L17.8489 3.41107C18.1524 4.02374 18.0991 4.75282 17.7098 5.31483ZM17.2387 2.72173C17.2783 2.74923 17.3165 2.77843 17.3538 2.80894L15.1975 4.41342C15.1161 3.93541 14.9683 3.47115 14.7588 3.03382C15.3937 2.34505 16.4793 2.19268 17.2387 2.72173ZM13.9619 3.16735C14.2934 3.77457 14.4801 4.45015 14.5076 5.14137C14.51 5.20597 14.5194 5.26436 14.5194 5.31973V5.54687C13.8794 5.06735 13.4097 4.39553 13.179 3.62992C13.1391 3.47736 13.0114 3.3636 12.8552 3.34176C12.6989 3.31991 12.5448 3.3943 12.4648 3.5301C11.592 5.03721 10.1367 5.8985 8.1399 6.09043C7.22644 6.17179 6.3062 6.12263 5.40667 5.94427V5.31973C5.4063 4.93193 5.45546 4.54564 5.55339 4.17028C5.97453 4.24976 6.40244 4.2895 6.83111 4.28912C7.16598 4.28931 7.50029 4.26463 7.83139 4.21472C9.09103 4.02412 10.8366 3.36511 12.1546 1.33911C12.9191 1.76383 13.5461 2.39816 13.9619 3.16735ZM6.73826 2.10359C7.97001 0.873343 9.79543 0.452962 11.4414 1.02044C10.5123 2.40061 9.26091 3.2182 7.71613 3.45213C7.08556 3.54517 6.44406 3.53895 5.81538 3.43348C6.04158 2.93908 6.35404 2.48875 6.73826 2.10359ZM4.35026 8.00059C4.3497 7.82864 4.41807 7.66365 4.53992 7.54236C4.56591 7.50996 4.59831 7.48322 4.63522 7.46401V8.51345C4.45573 8.40534 4.34725 8.21003 4.35026 8.00059ZM5.41722 9.00615C5.40988 8.90388 5.40667 8.79709 5.40667 8.68861V6.72909C6.03423 6.8421 6.67045 6.89936 7.30818 6.90049C7.59672 6.90049 7.90033 6.88806 8.21222 6.85811C10.1505 6.67203 11.6979 5.87779 12.7174 4.54771C13.1159 5.35269 13.7427 6.02225 14.5194 6.47314V8.68861C14.5194 8.79728 14.5076 8.90445 14.5 9.00785C14.4198 10.117 13.9489 11.1617 13.1713 11.9563C12.9596 12.1733 12.7274 12.3688 12.4776 12.5406C11.0278 13.5522 9.11344 13.5993 7.61555 12.66C6.33991 11.8644 5.52251 10.5059 5.41722 9.00615ZM1.98336 17.9972C1.98336 16.3515 3.34621 15.032 4.99194 15.032H7.29612L9.60144 16.5199V20.5768H1.98336V17.9972ZM10.3729 20.5768V16.5253L12.8051 15.032H13.9891V20.5768H10.3729ZM14.7605 22.554V13.636C14.7605 13.2702 15.0417 12.9587 15.4075 12.9587H15.5822C15.4783 13.1516 15.4355 13.3968 15.4355 13.636V22.554C15.4293 22.7873 15.4796 23.0188 15.5822 23.2286H15.4075C15.0417 23.2286 14.7605 22.9196 14.7605 22.554ZM23.0536 22.554C23.0536 22.9196 22.7801 23.2286 22.4142 23.2286H16.8539C16.4882 23.2286 16.207 22.9196 16.207 22.554V13.636C16.207 13.2702 16.4882 12.9587 16.8539 12.9587H22.4142C22.7801 12.9587 23.0536 13.2702 23.0536 13.636V22.554Z" fill="#083863"/>
<path d="M21.5034 13.2821C21.2904 13.2821 21.1177 13.4548 21.1177 13.6678C21.1177 13.8808 21.2904 14.0536 21.5034 14.0536C21.8336 14.0539 22.101 14.3214 22.1014 14.6515C22.1014 14.8646 22.2741 15.0373 22.4871 15.0373C22.7001 15.0373 22.8728 14.8646 22.8728 14.6515C22.8719 13.8955 22.2594 13.283 21.5034 13.2821Z" fill="#083863"/>
<path d="M17.7648 22.1361C17.4348 22.1355 17.1673 21.868 17.167 21.5381C17.167 21.3251 16.9942 21.1523 16.7812 21.1523C16.5682 21.1523 16.3955 21.3251 16.3955 21.5381C16.3963 22.2941 17.0089 22.9066 17.7648 22.9075C17.9778 22.9075 18.1505 22.7348 18.1505 22.5218C18.1505 22.3086 17.9778 22.1361 17.7648 22.1361Z" fill="#083863"/>
</g>
<defs>
<clipPath id="clip0_328_90">
<rect width="24" height="24" fill="white" transform="translate(0.5)"/>
</clipPath>
</defs>
</svg>
