<svg width="25" height="24" viewBox="0 0 25 24" fill="none" xmlns="http://www.w3.org/2000/svg">
<g clip-path="url(#clip0_328_140)">
<path d="M23.5887 10.1798C23.7529 10.1798 23.8227 10.359 23.8227 10.5234C23.8227 10.7127 23.7381 10.877 23.5887 10.877H22.9014V13.5814C22.9014 13.7407 22.707 13.8203 22.5129 13.8203C22.3187 13.8203 22.1244 13.7407 22.1244 13.5814V10.877H21.437C21.2876 10.877 21.203 10.7127 21.203 10.5234C21.203 10.359 21.2728 10.1798 21.437 10.1798H23.5887Z" fill="#FEDB41"/>
<path d="M22.8047 6.33644L22.6265 9.07422H2.43853L2.26013 6.33644L5.14032 4.88165L6.59491 2.00166L9.83073 2.17986L12.5325 0.398438L15.2343 2.17986L18.4699 2.00166L19.9247 4.88165L22.8047 6.33644Z" fill="#00EFD1"/>
<path d="M22.6265 14.926L22.8047 17.6636L19.9247 19.1184L18.4699 21.9984L15.2343 21.8202L12.5325 23.6016L9.83073 21.8202L6.59491 21.9984L5.14032 19.1184L2.26013 17.6636L2.43853 14.926H22.6265Z" fill="#00EFD1"/>
<path d="M20.4908 11.355V12.6748C20.4908 13.5316 19.9531 13.8502 19.2658 13.8502C18.5785 13.8502 18.0457 13.5316 18.0457 12.6748V11.355C18.0457 10.4985 18.5785 10.1798 19.2658 10.1798C19.9531 10.1798 20.4908 10.4985 20.4908 11.355ZM19.714 12.6748V11.355C19.714 11.0115 19.5446 10.857 19.2658 10.857C18.9868 10.857 18.8225 11.0115 18.8225 11.355V12.6748C18.8225 13.0186 18.9868 13.1728 19.2658 13.1728C19.5446 13.1728 19.714 13.0186 19.714 12.6748Z" fill="#FEDB41"/>
<path d="M17.2487 11.3253V11.3502C17.2487 12.1869 16.7108 12.5056 16.0235 12.5056H15.5305V13.5814C15.5305 13.7407 15.3362 13.8203 15.142 13.8203C14.9479 13.8203 14.7535 13.7407 14.7535 13.5814V10.4138C14.7535 10.2893 14.8681 10.1798 15.0424 10.1798H16.0733C16.7307 10.1798 17.2487 10.4885 17.2487 11.3253ZM16.4717 11.4099V11.355C16.4717 11.0165 16.3025 10.857 16.0235 10.857H15.5305V11.9079H16.0235C16.3025 11.9079 16.4717 11.7486 16.4717 11.4099Z" fill="#FEDB41"/>
<path d="M13.9718 13.3323C13.9969 13.3708 14.0107 13.4158 14.0117 13.4617C14.0117 13.656 13.7675 13.8502 13.5434 13.8502C13.4343 13.8547 13.3311 13.7992 13.2745 13.7059L12.4228 12.411L12.2137 12.6798V13.5813C12.2137 13.7407 12.0195 13.8202 11.8252 13.8202C11.631 13.8202 11.4369 13.7407 11.4369 13.5813V10.4138C11.4369 10.2494 11.631 10.1798 11.8252 10.1798C12.0195 10.1798 12.2137 10.2494 12.2137 10.4138V11.6091L13.145 10.2893C13.1889 10.2191 13.2666 10.1774 13.3492 10.1798C13.5484 10.1798 13.8074 10.3839 13.8074 10.5782C13.8072 10.6319 13.7897 10.6844 13.7576 10.7276L12.9409 11.7534L13.9718 13.3323Z" fill="#FEDB41"/>
<path d="M10.5453 11.1708C10.5453 11.4696 10.4208 11.5395 10.1568 11.5395C9.94766 11.5395 9.77841 11.4846 9.76849 11.3052C9.76343 11.1759 9.74845 10.857 9.32513 10.857C9.04129 10.857 8.8769 11.0165 8.8769 11.355V12.6748C8.8769 13.0135 9.04129 13.1728 9.33019 13.1728C9.72861 13.1728 9.75351 12.8692 9.76849 12.6748C9.78327 12.4906 9.95272 12.4408 10.1519 12.4408C10.4208 12.4408 10.5453 12.5106 10.5453 12.8094C10.5453 13.4717 10.0074 13.8502 9.29536 13.8502C8.64287 13.8502 8.1001 13.5316 8.1001 12.6748V11.355C8.1001 10.4985 8.64287 10.1798 9.29536 10.1798C10.0074 10.1798 10.5453 10.5384 10.5453 11.1708Z" fill="#FEDB41"/>
<path d="M7.34297 13.4467C7.34842 13.4646 7.35173 13.4829 7.35309 13.5015C7.35309 13.6858 7.06906 13.8202 6.85506 13.8202C6.73055 13.8202 6.63095 13.7805 6.60099 13.6759L6.43174 13.0533H5.38082L5.21157 13.6759C5.18161 13.7805 5.08201 13.8202 4.9575 13.8202C4.74331 13.8202 4.45947 13.6858 4.45947 13.5015C4.46083 13.4829 4.46414 13.4646 4.46939 13.4467L5.3958 10.4087C5.45047 10.2344 5.67458 10.1498 5.90375 10.1498C6.13292 10.1498 6.35703 10.2344 6.4117 10.4087L7.34297 13.4467ZM6.26735 12.4557L5.90375 11.1209L5.54015 12.4557H6.26735Z" fill="#FEDB41"/>
<path d="M3.68746 10.4189V12.6748C3.68746 13.5316 3.14468 13.8502 2.49219 13.8502C1.77997 13.8502 1.24207 13.4717 1.24207 12.8094C1.24207 12.5106 1.36657 12.4408 1.63562 12.4408C1.83483 12.4408 2.00409 12.4906 2.01907 12.6748C2.03405 12.8692 2.05895 13.1728 2.45737 13.1728C2.74626 13.1728 2.91046 13.0135 2.91046 12.6748V10.857H2.47721C2.3278 10.857 2.24318 10.6977 2.24318 10.5134C2.24318 10.3541 2.31282 10.1798 2.47721 10.1798H3.34876C3.5182 10.1798 3.68746 10.2594 3.68746 10.4189Z" fill="#FEDB41"/>
<path d="M2.08061 18.0193L4.84369 19.4149L6.23933 22.178C6.31073 22.3192 6.45897 22.4048 6.61693 22.3963L9.72124 22.2253L12.3133 23.9343C12.4464 24.022 12.6189 24.022 12.752 23.9343L15.3439 22.2253L18.4482 22.3963C18.6063 22.405 18.7544 22.3194 18.8258 22.178L20.2214 19.4149L22.9847 18.0193C23.1271 17.9473 23.2129 17.7971 23.2026 17.6378L23.0242 14.9062C23.01 14.6979 22.8353 14.537 22.6266 14.5401H2.43857C2.22963 14.5372 2.05512 14.6981 2.04092 14.9062L1.86253 17.6409C1.85222 17.7994 1.93821 17.9487 2.08061 18.0193ZM2.81189 15.3369H22.2532L22.39 17.4329L19.745 18.7659C19.6693 18.8037 19.6075 18.8647 19.5691 18.9402L18.2319 21.5872L15.2561 21.4228C15.1709 21.4179 15.0863 21.4407 15.0149 21.4878L12.5326 23.1244L10.05 21.4876C9.98504 21.4446 9.90878 21.4218 9.83096 21.4216C9.82357 21.4216 9.81637 21.4216 9.80898 21.4222L6.83346 21.5862L5.49579 18.9387C5.45747 18.8628 5.3958 18.8011 5.31992 18.7628L2.67493 17.4331L2.81189 15.3369Z" fill="#083863"/>
<path d="M2.43857 9.46023H22.6266C22.8353 9.46295 23.0098 9.30206 23.024 9.0939L23.2024 6.35923C23.2127 6.20029 23.1269 6.05069 22.9845 5.97929L20.2212 4.58443L18.8256 1.82174C18.7542 1.6805 18.606 1.5949 18.448 1.60366L15.3437 1.77485L12.7516 0.0658037C12.6186 -0.0219346 12.446 -0.0219346 12.3129 0.0658037L9.72124 1.77485L6.61694 1.60385C6.45897 1.5951 6.31073 1.6807 6.23933 1.82213L4.84369 4.5852L2.08061 5.98085C1.93801 6.05283 1.85222 6.20301 1.86253 6.36234L2.04092 9.0939C2.05513 9.30206 2.22963 9.46295 2.43857 9.46023ZM5.31993 5.23731C5.3958 5.19898 5.45747 5.13731 5.49579 5.06144L6.83307 2.41392L9.80878 2.57773C9.89419 2.58259 9.97881 2.55983 10.05 2.51256L12.5326 0.875681L15.0149 2.51275C15.0863 2.55983 15.1709 2.58259 15.2561 2.57792L18.2319 2.41392L19.5691 5.06144C19.6075 5.13731 19.6691 5.19898 19.745 5.2375L22.39 6.5672L22.2532 8.66338H2.81189L2.67494 6.5672L5.31993 5.23731Z" fill="#083863"/>
</g>
<defs>
<clipPath id="clip0_328_140">
<rect width="24" height="24" fill="white" transform="translate(0.5)"/>
</clipPath>
</defs>
</svg>
