<svg width="25" height="24" viewBox="0 0 25 24" fill="none" xmlns="http://www.w3.org/2000/svg">
<g clip-path="url(#clip0_328_154)">
<path d="M16.8145 18.1088L19.6334 16.1408C20.251 15.685 21.118 15.7951 21.6021 16.3912L16.057 21.4777C15.287 22.005 14.3676 22.2702 13.4352 22.2342L8.93414 21.7572C8.51998 21.7136 8.10505 21.8317 7.77586 22.0869L6.95896 22.7204L6.33582 18.3176L6.37182 18.3126C7.50096 17.1825 9.16694 16.7785 10.6885 17.2656L10.9684 17.3553C11.4058 17.4953 11.8695 17.5346 12.3242 17.4698L14.8618 17.1109C15.6579 16.9983 16.4392 17.3974 16.8145 18.1088Z" fill="#F7CAA5"/>
<path d="M21.5358 7.98718V7.98756C21.5385 10.0024 20.741 11.9358 19.3187 13.3629L17.5933 11.6375C18.5572 10.6674 19.0975 9.35502 19.0958 7.98756L19.1251 7.98718H21.5358Z" fill="#F4B844"/>
<path d="M21.5357 7.98724H19.125L19.0957 7.98762C19.0976 6.61216 18.551 5.29252 17.5771 4.32112L17.5806 4.3177L17.6038 4.29426L19.3026 2.5957C20.7346 4.02412 21.5382 5.96444 21.5357 7.98724Z" fill="#FEDB41"/>
<path d="M19.3186 13.3629C17.8889 14.805 15.9413 15.6149 13.9107 15.6122H13.9061L13.9067 15.5465V13.1724H13.9107C15.2942 13.1743 16.6207 12.6214 17.5932 11.6375L19.3186 13.3629Z" fill="#FEDB41"/>
<path d="M19.3027 2.59568L17.6039 4.29424L17.5807 4.31767L17.5772 4.3211C16.6058 3.34723 15.2862 2.80066 13.9107 2.80238H13.9067V0.362555H13.9107C15.9335 0.359888 17.874 1.16364 19.3027 2.59568Z" fill="#F4B844"/>
<path d="M13.9067 13.1724C11.0432 13.1724 8.72168 10.8509 8.72168 7.9874C8.72168 5.12389 11.0432 2.80237 13.9067 2.80237H13.9107C16.7742 2.80237 19.0955 5.12389 19.0955 7.9874C19.0955 10.8509 16.7742 13.1724 13.9107 13.1724H13.9067ZM16.1135 7.98759L13.9107 4.68972L11.7077 7.98759L13.9107 11.2849L16.1135 7.98759Z" fill="#00EFD1"/>
<path d="M13.9107 4.6897L16.1135 7.98756L13.9107 11.2849L11.7076 7.98756L13.9107 4.6897Z" fill="#FEDB41"/>
<path d="M13.9067 13.1724V15.5465L13.9061 15.6122C11.885 15.6138 9.94663 14.8104 8.51917 13.3797L8.53383 13.3644L10.2446 11.6537C11.2148 12.6268 12.5326 13.1732 13.9067 13.1724Z" fill="#F4B844"/>
<path d="M13.9067 0.362552V2.80237C12.5406 2.80161 11.2295 3.34189 10.2606 4.30509L10.2505 4.29423L8.53516 2.57948C9.96129 1.15811 11.8932 0.360837 13.9067 0.362552Z" fill="#FEDB41"/>
<path d="M10.2506 4.29422L10.2606 4.30508C9.27706 5.27781 8.72421 6.60412 8.72592 7.98758L8.68839 7.9872H6.28553C6.28286 5.95639 7.09309 4.00903 8.53523 2.57947L10.2506 4.29422Z" fill="#F4B844"/>
<path d="M10.2446 11.6537L8.53389 13.3644L8.51922 13.3797C7.08661 11.9513 6.28267 10.0106 6.28553 7.98756V7.98718H8.68839L8.72592 7.98756C8.72402 9.36302 9.27058 10.6825 10.2446 11.6537Z" fill="#FEDB41"/>
<path d="M6.95889 22.7204L7.02918 23.2159L4.24683 23.6101L3.38269 17.504L6.16504 17.11L6.33574 18.3176L6.95889 22.7204Z" fill="#00EFD1"/>
<path d="M19.406 15.8239L16.9187 17.56C16.4107 16.9296 15.6088 16.6124 14.807 16.7244L12.269 17.0836C11.8728 17.1392 11.4689 17.1051 11.0873 16.9835L10.8073 16.8938C9.38439 16.4345 7.82699 16.6902 6.62566 17.5804L6.55136 17.0552C6.52107 16.8418 6.3237 16.6934 6.11034 16.7235L3.32798 17.1177C3.11461 17.1478 2.96621 17.3453 2.99631 17.5585L3.86045 23.6646C3.88769 23.857 4.05248 24.0001 4.2468 24.0001C4.26509 24.0001 4.28337 23.9988 4.30147 23.9961L7.08383 23.6021C7.29719 23.5718 7.44579 23.3745 7.4155 23.1611L7.37702 22.8898L8.01522 22.3953C8.2644 22.2013 8.57912 22.1116 8.89307 22.1453L13.394 22.6222C13.4028 22.6231 13.4113 22.6239 13.4201 22.6241C14.4361 22.661 15.4372 22.3722 16.2775 21.7999C16.2927 21.7895 16.3072 21.778 16.3207 21.7655L21.8658 16.6787C22.018 16.5393 22.0352 16.3053 21.9049 16.1453C21.2915 15.388 20.1911 15.2465 19.406 15.8239ZM4.57847 23.1691L3.82368 17.8357L5.84267 17.5511L6.59118 22.7751L6.59746 22.8843L4.57847 23.1691ZM15.8142 21.1713C15.1204 21.6369 14.2979 21.8725 13.4628 21.8449L8.97518 21.3696C8.46062 21.3139 7.94473 21.4608 7.53647 21.779L7.2509 22.0003L6.7533 18.4866C7.77708 17.5324 9.23713 17.2076 10.5688 17.6374L10.849 17.7271C11.3426 17.8844 11.8654 17.9286 12.3784 17.8564L14.9161 17.4973C15.5492 17.4087 16.1699 17.7259 16.4692 18.2908C16.489 18.3283 16.5073 18.3668 16.5238 18.4061L12.7893 18.9343C12.5864 18.9629 12.4401 19.1435 12.4544 19.3479C12.4687 19.5523 12.6386 19.7108 12.8434 19.7108C12.8619 19.7108 12.8804 19.7095 12.8987 19.707L17.0694 19.1168C17.2828 19.0867 17.4312 18.8894 17.4011 18.676C17.3803 18.5301 17.3457 18.3866 17.2977 18.2474L19.8566 16.461C19.8594 16.4589 19.8621 16.457 19.8649 16.4549C20.2029 16.2047 20.658 16.1815 21.0198 16.3958L15.8142 21.1713Z" fill="#083863"/>
<path d="M13.9106 16.0024C16.0342 16.0018 18.0703 15.1566 19.57 13.6531C21.0697 12.1496 21.9096 10.1112 21.9049 7.98759V7.9872C21.8971 3.56916 18.31 -0.00646843 13.892 8.78617e-06C9.47391 0.006486 5.89733 3.59259 5.90247 8.01045C5.90762 12.4285 9.49257 16.0062 13.9106 16.0024ZM19.4723 7.59705C19.3911 6.38942 18.9156 5.242 18.1193 4.3308L19.2949 3.15499C20.4008 4.37995 21.0506 5.94878 21.135 7.59705H19.4723ZM10.254 12.1959C11.1643 12.9916 12.3104 13.4668 13.5165 13.5485V15.2114C11.8695 15.1265 10.3022 14.4768 9.07822 13.3719L10.254 12.1959ZM14.2968 13.5491C15.5137 13.4687 16.6699 12.9874 17.5847 12.1808L18.7604 13.3566C17.5318 14.4726 15.9544 15.1282 14.2968 15.2116V13.5491ZM17.3159 11.3628C15.7042 12.9888 13.1678 13.2482 11.2603 11.9827C9.35255 10.717 8.60577 8.27906 9.47733 6.16215C10.3489 4.04523 12.5956 2.83971 14.8414 3.28397C17.0873 3.72823 18.7057 5.69826 18.7055 7.98759C18.7089 9.25255 18.209 10.4668 17.3159 11.3628ZM17.5674 3.7791C16.6551 2.98182 15.5059 2.50632 14.2968 2.42592V0.762799C15.9466 0.846241 17.5171 1.49606 18.7432 2.60291L17.5674 3.7791ZM13.5165 2.42612C12.3182 2.50765 11.1791 2.97706 10.2716 3.76366L9.09537 2.58786C10.3171 1.49225 11.8775 0.848527 13.5165 0.763561V2.42612ZM9.71737 4.31328C8.91172 5.22695 8.43069 6.38142 8.34934 7.59705H6.68622C6.77042 5.94078 7.42634 4.3649 8.54195 3.13785L9.71737 4.31328ZM8.34915 8.37736C8.43012 9.58499 8.90543 10.7328 9.70232 11.6442L8.52613 12.8202C7.41986 11.595 6.77004 10.0258 6.68603 8.37736H8.34915ZM19.3104 12.803L18.1342 11.6268C18.9217 10.7179 19.3915 9.57718 19.4723 8.37736H21.135C21.0512 10.0178 20.4073 11.5802 19.3104 12.803Z" fill="#083863"/>
<path d="M14.2349 4.47304C14.1625 4.36465 14.0409 4.29968 13.9106 4.29968C13.7803 4.29968 13.6588 4.36465 13.5864 4.47304L11.3834 7.77091C11.2957 7.90198 11.2957 8.07305 11.3834 8.20431L13.5864 11.5016C13.6588 11.6098 13.7803 11.675 13.9106 11.675C14.0409 11.675 14.1625 11.6098 14.2349 11.5016L16.4379 8.20431C16.5255 8.07305 16.5255 7.90198 16.4379 7.77091L14.2349 4.47304ZM13.9106 10.5826L12.1768 7.98752L13.9106 5.39205L15.6442 7.98752L13.9106 10.5826Z" fill="#083863"/>
</g>
<defs>
<clipPath id="clip0_328_154">
<rect width="24" height="24" fill="white" transform="translate(0.5)"/>
</clipPath>
</defs>
</svg>
