<svg width="24" height="24" viewBox="0 0 24 24" fill="none" xmlns="http://www.w3.org/2000/svg">
<g clip-path="url(#clip0_328_112)">
<path d="M21.0704 4.35502C20.2676 4.31628 19.6448 3.63935 19.6734 2.83609C19.7018 2.03284 20.3708 1.40168 21.1743 1.41994C21.978 1.43821 22.6177 2.09908 22.6096 2.90277C22.6015 3.70669 21.9487 4.35458 21.1448 4.35678C21.1202 4.35678 21.0953 4.35612 21.0704 4.35502Z" fill="#FEDB41"/>
<path d="M18.1943 9.52112H22.0181V14.7421H18.1943V9.52112Z" fill="#00ACEA"/>
<path d="M18.1943 20.4507V21.8732C18.1943 22.8068 17.4377 23.5634 16.5041 23.5634H3.08052C2.1472 23.5634 1.39038 22.8068 1.39038 21.8732V20.4507H18.1943Z" fill="#00ACEA"/>
<path d="M18.1943 14.7421V20.4507H1.39038V2.12678C1.39038 1.19347 2.1472 0.436646 3.08052 0.436646H16.5041C17.4377 0.436646 18.1943 1.19347 18.1943 2.12678V14.7421ZM16.036 14.0315V7.71502H3.54883V14.0315H16.036Z" fill="#00EFD1"/>
<path d="M12.0463 7.71497H16.0361V14.0314H12.0463V7.71497Z" fill="#00ACEA"/>
<path d="M7.53918 7.71497H12.0462V14.0314H7.53918V7.71497Z" fill="#FEDB41"/>
<path d="M3.54883 7.71497H7.53914V14.0314H3.54883V7.71497Z" fill="#00ACEA"/>
<path d="M3.08059 24H16.5042C17.0707 24.0026 17.6149 23.7799 18.017 23.3811C18.4192 22.9822 18.6461 22.4397 18.6479 21.8732V15.2113H22.018C22.2725 15.2033 22.4756 14.9965 22.4789 14.7421V9.52113C22.474 9.27025 22.2689 9.06977 22.018 9.07043H21.5211V4.77004C22.4723 4.57946 23.1307 3.70776 23.0544 2.74077C22.9778 1.77379 22.1906 1.01653 21.2212 0.978014C20.252 0.939282 19.4067 1.63118 19.2533 2.58893C19.0999 3.54689 19.6868 4.4681 20.6197 4.73395V9.07043H18.6479V2.12678C18.6461 1.56032 18.4192 1.01785 18.017 0.61908C17.6149 0.220093 17.0707 -0.00261762 16.5042 2.32204e-05H3.08059C2.51633 -0.00173734 1.97473 0.221854 1.57619 0.621061C1.17764 1.02049 0.95493 1.56252 0.957791 2.12678V21.8732C0.95493 22.4375 1.17764 22.9795 1.57619 23.3789C1.97473 23.7781 2.51633 24.0017 3.08059 24ZM20.1307 2.89196C20.1307 2.33188 20.5847 1.87788 21.1448 1.87788C21.7049 1.87788 22.1589 2.33188 22.1589 2.89196C22.1589 3.45204 21.7049 3.90605 21.1448 3.90605C21.1268 3.90605 21.1089 3.90561 21.0931 3.90473C20.5535 3.87788 20.1301 3.43201 20.1307 2.89196ZM16.5042 23.0986H3.08059C2.75532 23.1008 2.44282 22.9722 2.21329 22.7418C1.98354 22.5114 1.85612 22.1985 1.8592 21.8732V20.9014H17.7465V21.8732C17.745 22.2007 17.6131 22.5141 17.3799 22.744C17.1468 22.974 16.8317 23.1014 16.5042 23.0986ZM21.5775 9.97184V14.3099H18.6479V9.97184H21.5775ZM3.08059 0.90143H16.5042C16.8317 0.898569 17.1468 1.02621 17.3799 1.25618C17.6131 1.48594 17.745 1.79932 17.7465 2.12678V20H1.8592V2.12678C1.85612 1.80152 1.98354 1.48858 2.21329 1.25816C2.44282 1.02797 2.75532 0.899229 3.08059 0.90143Z" fill="#083863"/>
<path d="M16.5071 7.71828C16.5071 7.46938 16.3053 7.26758 16.0564 7.26758H3.54934C3.30044 7.26758 3.09863 7.46938 3.09863 7.71828V14.0281C3.09863 14.277 3.30044 14.4788 3.54934 14.4788H16.0564C16.3053 14.4788 16.5071 14.277 16.5071 14.0281V7.71828ZM8.00003 13.5774V8.16898H11.6057V13.5774H8.00003ZM15.6057 13.5774H12.5071V8.16898H15.6057V13.5774ZM4.00004 8.16898H7.09863V13.5774H4.00004V8.16898Z" fill="#083863"/>
<path d="M3.54885 16.6761H16.0361C16.285 16.6761 16.4868 16.4743 16.4868 16.2254C16.4868 15.9765 16.285 15.7747 16.0361 15.7747H3.54885C3.29995 15.7747 3.09814 15.9765 3.09814 16.2254C3.09814 16.4743 3.29995 16.6761 3.54885 16.6761Z" fill="#083863"/>
<path d="M3.54885 5.97184H16.0361C16.285 5.97184 16.4868 5.77004 16.4868 5.52114C16.4868 5.27224 16.285 5.07043 16.0361 5.07043H3.54885C3.29995 5.07043 3.09814 5.27224 3.09814 5.52114C3.09814 5.77004 3.29995 5.97184 3.54885 5.97184Z" fill="#083863"/>
</g>
<defs>
<clipPath id="clip0_328_112">
<rect width="24" height="24" fill="white"/>
</clipPath>
</defs>
</svg>
