<svg width="25" height="24" viewBox="0 0 25 24" fill="none" xmlns="http://www.w3.org/2000/svg">
<g clip-path="url(#clip0_328_221)">
<path d="M20.9892 13.3356L16.7274 17.46L17.7585 23.3029L12.4998 20.5533L7.27561 23.3029L8.27234 17.46L4.0105 13.3356L9.88772 12.4763L12.4998 7.18335L15.112 12.4763L20.9892 13.3356Z" fill="#FFFF5A"/>
<path d="M17.724 23.9905L17.4147 23.9217L12.4998 21.3096L7.58486 23.9217C7.24849 24.0977 6.83312 23.9677 6.65714 23.6313C6.58786 23.4989 6.56365 23.3474 6.58813 23.2L7.51611 17.7008L3.52919 13.817C3.35565 13.6336 3.29045 13.373 3.35736 13.1295C3.43321 12.8769 3.64682 12.69 3.90727 12.6484L9.44082 11.8579L11.8811 6.87425C12.0466 6.53255 12.4577 6.38973 12.7994 6.55525C12.9386 6.62268 13.0511 6.73504 13.1184 6.87425L15.5587 11.8579L21.0923 12.6484C21.3527 12.69 21.5664 12.8769 21.6422 13.1295C21.709 13.373 21.6439 13.6336 21.4703 13.817L17.4834 17.7008L18.4114 23.2C18.4476 23.4518 18.3419 23.703 18.1364 23.8531C18.0236 23.9536 17.8745 24.0033 17.724 23.9905ZM12.4997 19.8661L12.809 19.9349L16.8303 22.0314L16.0742 17.5977C16.0367 17.3762 16.0997 17.1495 16.246 16.979L19.5112 13.817L15.0087 13.164C14.7874 13.1251 14.5968 12.9853 14.4932 12.7859L12.4997 8.73021L10.5062 12.7859C10.4026 12.9853 10.212 13.1251 9.99067 13.164L5.48818 13.817L8.75336 16.979C8.89973 17.1495 8.96269 17.3762 8.92519 17.5977L8.16911 22.0314L12.1904 19.9349L12.4997 19.8661Z" fill="#FFFF5A"/>
<path d="M12.4998 4.81182C12.1201 4.81182 11.8124 4.50407 11.8124 4.12441V0.687402C11.8124 0.307749 12.1202 0 12.4998 0C12.8794 0 13.1872 0.307749 13.1872 0.687402V4.12441C13.1872 4.50407 12.8794 4.81182 12.4998 4.81182Z" fill="#FFFF5A"/>
<path d="M20.405 7.63029C20.2559 7.63292 20.1103 7.58437 19.9926 7.49279C19.6928 7.29234 19.6123 6.88677 19.8127 6.58698C19.8258 6.56738 19.84 6.5485 19.8551 6.53047L21.9173 3.78086C22.1451 3.47713 22.576 3.41562 22.8797 3.64337C23.1834 3.87112 23.245 4.30202 23.0172 4.60576L20.955 7.35537C20.8218 7.52437 20.6201 7.62516 20.405 7.63029Z" fill="#FFFF5A"/>
<path d="M4.59484 7.63035C4.37972 7.62529 4.17808 7.52444 4.04493 7.35537L1.98272 4.60576C1.75497 4.30202 1.81648 3.87119 2.12022 3.64337C2.42395 3.41562 2.85479 3.47713 3.08261 3.78086L5.14481 6.53047C5.37651 6.80684 5.34027 7.21873 5.06383 7.45043C5.04574 7.46556 5.02692 7.4797 5.00732 7.49279C4.88956 7.58443 4.74398 7.63298 4.59484 7.63035Z" fill="#FFFF5A"/>
</g>
<defs>
<clipPath id="clip0_328_221">
<rect width="24" height="24" fill="white" transform="translate(0.5)"/>
</clipPath>
</defs>
</svg>
