<svg width="48" height="48" viewBox="0 0 48 48" fill="none" xmlns="http://www.w3.org/2000/svg">
<rect width="48" height="48" rx="6" fill="#43A5F4"/>
<rect x="0.5" y="0.5" width="47" height="47" rx="5.5" stroke="white" stroke-opacity="0.2"/>
<path d="M37.7708 25.1151C37.6485 25.3879 37.4499 25.6194 37.199 25.782C36.9481 25.9445 36.6556 26.031 36.3566 26.0311H31.7054V33.7832C31.7054 33.9868 31.6654 34.1884 31.5875 34.3766C31.5096 34.5647 31.3954 34.7356 31.2514 34.8796C31.1074 35.0236 30.9365 35.1378 30.7483 35.2157C30.5602 35.2936 30.3586 35.3337 30.155 35.3336H17.7516C17.548 35.3337 17.3464 35.2936 17.1582 35.2157C16.9701 35.1378 16.7992 35.0236 16.6552 34.8796C16.5112 34.7356 16.397 34.5647 16.3191 34.3766C16.2412 34.1884 16.2012 33.9868 16.2012 33.7832V26.0311H11.55C11.2512 26.031 10.9588 25.9445 10.708 25.7822C10.4572 25.6198 10.2586 25.3885 10.1362 25.1159C10.0137 24.8434 9.97265 24.5413 10.0178 24.2459C10.063 23.9506 10.1926 23.6746 10.3909 23.4511L22.7943 9.49738C22.9437 9.34023 23.1234 9.2151 23.3227 9.1296C23.5219 9.04409 23.7365 9 23.9533 9C24.1701 9 24.3847 9.04409 24.5839 9.1296C24.7832 9.2151 24.9629 9.34023 25.1123 9.49738L37.5157 23.4511C37.7141 23.6744 37.8438 23.9502 37.889 24.2454C37.9343 24.5407 37.8932 24.8427 37.7708 25.1151ZM31.7054 38.4344C31.7054 38.2308 31.6654 38.0292 31.5875 37.8411C31.5096 37.6529 31.3954 37.482 31.2514 37.338C31.1074 37.194 30.9365 37.0798 30.7483 37.0019C30.5602 36.924 30.3586 36.884 30.155 36.884H17.7516C17.3404 36.884 16.9461 37.0474 16.6553 37.3381C16.3646 37.6289 16.2012 38.0233 16.2012 38.4344C16.2012 38.8456 16.3646 39.24 16.6553 39.5308C16.9461 39.8215 17.3404 39.9849 17.7516 39.9849H30.155C30.3586 39.9849 30.5602 39.9449 30.7483 39.867C30.9365 39.7891 31.1074 39.6749 31.2514 39.5309C31.3954 39.3869 31.5096 39.216 31.5875 39.0278C31.6654 38.8397 31.7054 38.6381 31.7054 38.4344Z" fill="white"/>
</svg>
