<svg width="32" height="32" viewBox="0 0 32 32" fill="none" xmlns="http://www.w3.org/2000/svg">
<path d="M22.9998 11C22.9023 11 22.8048 11 22.7085 11C23.0197 9.95528 23.0826 8.85232 22.8921 7.77901C22.7017 6.70569 22.2633 5.69168 21.6117 4.81776C20.9601 3.94385 20.1135 3.23418 19.1392 2.7453C18.1649 2.25641 17.0899 2.00183 15.9998 2.00183C14.9097 2.00183 13.8347 2.25641 12.8604 2.7453C11.8861 3.23418 11.0394 3.94385 10.3879 4.81776C9.73629 5.69168 9.29783 6.70569 9.10741 7.77901C8.91698 8.85232 8.97986 9.95528 9.29102 11C9.19352 11 9.09727 11 8.99977 11C7.94704 11.0005 6.90798 11.2385 5.95994 11.6961C5.0119 12.1538 4.1793 12.8194 3.52411 13.6434C2.86892 14.4674 2.40802 15.4286 2.17572 16.4554C1.94342 17.4821 1.94571 18.5481 2.1824 19.5739C2.4191 20.5996 2.88411 21.5588 3.54282 22.38C4.20154 23.2012 5.03698 23.8632 5.98698 24.3168C6.93697 24.7704 7.97704 25.0039 9.02976 24.9999C10.0825 24.9959 11.1208 24.7546 12.0673 24.2937L11.0423 27.7125C10.9975 27.8618 10.9882 28.0195 11.0151 28.173C11.0421 28.3266 11.1046 28.4717 11.1976 28.5967C11.2907 28.7218 11.4116 28.8234 11.5509 28.8935C11.6902 28.9635 11.8439 29 11.9998 29H19.9998C20.1557 29 20.3094 28.9635 20.4486 28.8935C20.5879 28.8234 20.7089 28.7218 20.8019 28.5967C20.8949 28.4717 20.9574 28.3266 20.9844 28.173C21.0114 28.0195 21.0021 27.8618 20.9573 27.7125L19.9323 24.2937C20.8788 24.7546 21.9171 24.9959 22.9698 24.9999C24.0225 25.0039 25.0626 24.7704 26.0126 24.3168C26.9626 23.8632 27.798 23.2012 28.4567 22.38C29.1154 21.5588 29.5805 20.5996 29.8171 19.5739C30.0538 18.5481 30.0561 17.4821 29.8238 16.4554C29.5915 15.4286 29.1306 14.4674 28.4754 13.6434C27.8203 12.8194 26.9876 12.1538 26.0396 11.6961C25.0916 11.2385 24.0525 11.0005 22.9998 11ZM22.9998 23C22.172 22.9999 21.3572 22.7942 20.6285 22.4015C19.8998 22.0088 19.2801 21.4413 18.8248 20.75C18.6922 20.5505 18.4924 20.4053 18.2617 20.3407C18.0311 20.2761 17.7849 20.2964 17.568 20.398C17.351 20.4996 17.1778 20.6756 17.0797 20.8942C16.9816 21.1127 16.9652 21.3592 17.0335 21.5887L18.6585 26.9962H13.346L14.971 21.5887C15.0436 21.3576 15.0298 21.1079 14.9321 20.8861C14.8344 20.6644 14.6596 20.4857 14.44 20.3831C14.2205 20.2806 13.9712 20.2613 13.7385 20.3288C13.5057 20.3963 13.3054 20.5459 13.1748 20.75C12.6581 21.5326 11.9318 22.154 11.0787 22.5435C10.2257 22.9329 9.28032 23.0746 8.35058 22.9524C7.42084 22.8302 6.5442 22.449 5.82078 21.8524C5.09736 21.2557 4.55631 20.4676 4.25941 19.5781C3.96251 18.6886 3.92174 17.7336 4.14175 16.822C4.36176 15.9104 4.83367 15.0791 5.50361 14.423C6.17355 13.7668 7.01451 13.3123 7.93045 13.1113C8.84639 12.9103 9.80039 12.9709 10.6835 13.2862C10.8818 13.3572 11.0975 13.3636 11.2997 13.3048C11.5019 13.2459 11.6804 13.1247 11.8096 12.9584C11.9389 12.7922 12.0124 12.5893 12.0196 12.3788C12.0268 12.1684 11.9674 11.961 11.8498 11.7862C11.3441 11.0338 11.0526 10.158 11.0063 9.25266C10.96 8.34728 11.1608 7.44635 11.5871 6.64627C12.0134 5.84619 12.6492 5.17706 13.4264 4.71049C14.2037 4.24391 15.0932 3.99743 15.9998 3.99743C16.9063 3.99743 17.7958 4.24391 18.5731 4.71049C19.3504 5.17706 19.9862 5.84619 20.4125 6.64627C20.8388 7.44635 21.0395 8.34728 20.9933 9.25266C20.947 10.158 20.6554 11.0338 20.1498 11.7862C20.0322 11.961 19.9727 12.1684 19.9799 12.3788C19.9872 12.5893 20.0606 12.7922 20.1899 12.9584C20.3192 13.1247 20.4976 13.2459 20.6999 13.3048C20.9021 13.3636 21.1177 13.3572 21.316 13.2862C22.0019 13.0436 22.7325 12.9536 23.4567 13.0225C24.181 13.0913 24.8815 13.3174 25.5093 13.6849C26.1372 14.0525 26.6773 14.5526 27.0919 15.1504C27.5065 15.7482 27.7857 16.4292 27.91 17.1461C28.0342 17.8629 28.0006 18.5982 27.8113 19.3007C27.6221 20.0032 27.2818 20.6559 26.8143 21.2133C26.3467 21.7707 25.7632 22.2193 25.1043 22.5279C24.4455 22.8365 23.7273 22.9976 22.9998 23Z" fill="white"/>
</svg>
