<svg width="32" height="32" viewBox="0 0 32 32" fill="none" xmlns="http://www.w3.org/2000/svg">
<path d="M17.9999 19.7101C19.5675 18.7337 20.7745 17.2734 21.4382 15.55C22.1019 13.8265 22.1863 11.9338 21.6786 10.1582C21.1708 8.38254 20.0986 6.82057 18.624 5.70859C17.1495 4.59661 15.3529 3.99512 13.5061 3.99512C11.6593 3.99512 9.86274 4.59661 8.38822 5.70859C6.91369 6.82057 5.84144 8.38254 5.33369 10.1582C4.82594 11.9338 4.91031 13.8265 5.57405 15.55C6.23778 17.2734 7.44476 18.7337 9.01238 19.7101C6.43113 20.5551 4.10863 22.1339 2.24113 24.3564C2.15363 24.4564 2.08695 24.5729 2.045 24.6991C2.00305 24.8252 1.98667 24.9584 1.99681 25.0909C2.00695 25.2235 2.04341 25.3527 2.10406 25.4709C2.16471 25.5892 2.24833 25.6942 2.35003 25.7798C2.45173 25.8654 2.56948 25.9298 2.69638 25.9694C2.82328 26.0089 2.95679 26.0228 3.08911 26.0101C3.22143 25.9975 3.34989 25.9585 3.467 25.8957C3.5841 25.8328 3.68749 25.7472 3.77113 25.6439C6.28113 22.6489 9.73863 21.0001 13.4999 21.0001C17.2611 21.0001 20.7186 22.6489 23.2336 25.6439C23.4044 25.8471 23.6488 25.9742 23.9133 25.9971C24.1777 26.0201 24.4404 25.9371 24.6436 25.7664C24.8468 25.5956 24.9739 25.3512 24.9969 25.0867C25.0199 24.8223 24.9369 24.5596 24.7661 24.3564C22.8974 22.1339 20.5749 20.5551 17.9999 19.7101ZM6.99988 12.5001C6.99988 11.2145 7.3811 9.95783 8.09533 8.88891C8.80956 7.81999 9.82472 6.98687 11.0124 6.4949C12.2002 6.00293 13.5071 5.87421 14.768 6.12501C16.0288 6.37582 17.187 6.99488 18.0961 7.90392C19.0051 8.81296 19.6242 9.97115 19.875 11.232C20.1258 12.4929 19.9971 13.7998 19.5051 14.9876C19.0131 16.1753 18.18 17.1904 17.1111 17.9047C16.0422 18.6189 14.7855 19.0001 13.4999 19.0001C11.7766 18.9981 10.1244 18.3127 8.90588 17.0941C7.68732 15.8756 7.00186 14.2234 6.99988 12.5001Z" fill="white"/>
<path d="M31.6897 16.7017C31.6309 16.6504 31.5581 16.6178 31.4807 16.6079C31.4032 16.598 31.3246 16.6114 31.2547 16.6463L29.6174 17.4615L28.2505 15.191C28.2153 15.1327 28.1657 15.0845 28.1065 15.051C28.0472 15.0176 27.9804 15 27.9123 15C27.8443 15 27.7774 15.0176 27.7181 15.051C27.6589 15.0845 27.6093 15.1327 27.5742 15.191L26.2072 17.4625L24.5705 16.6473C24.5009 16.6127 24.4225 16.5994 24.3454 16.6092C24.2682 16.6189 24.1956 16.6513 24.1367 16.7021C24.0779 16.753 24.0353 16.8201 24.0145 16.895C23.9936 16.97 23.9953 17.0494 24.0195 17.1234L25.226 20.8199C25.2381 20.8571 25.2584 20.891 25.2854 20.9192C25.3124 20.9475 25.3454 20.9693 25.382 20.983C25.4186 20.9968 25.4577 21.0022 25.4967 20.9988C25.5356 20.9954 25.5732 20.9833 25.6069 20.9634C25.615 20.9585 26.4488 20.4782 27.9123 20.4782C29.3758 20.4782 30.2096 20.9585 30.2171 20.9631C30.2507 20.9832 30.2885 20.9954 30.3275 20.9989C30.3665 21.0025 30.4058 20.9972 30.4425 20.9834C30.4792 20.9696 30.5123 20.9478 30.5394 20.9195C30.5665 20.8912 30.5868 20.8572 30.599 20.8199L31.8055 17.1243C31.8303 17.0504 31.8325 16.9707 31.8119 16.8954C31.7913 16.8202 31.7488 16.7527 31.6897 16.7017ZM30.1949 20.3748C29.8036 20.2088 29.0236 19.9564 27.9123 19.9564C26.801 19.9564 26.021 20.2088 25.6297 20.3748L24.6093 17.2499L26.079 17.9826C26.168 18.0265 26.2702 18.0354 26.3654 18.0077C26.4606 17.98 26.5421 17.9177 26.5936 17.8329L27.9123 15.641L29.231 17.8323C29.2826 17.9169 29.364 17.9791 29.4591 18.0068C29.5543 18.0345 29.6563 18.0257 29.7453 17.982L31.2153 17.2499L30.1949 20.3748ZM29.4733 19.3313C29.4627 19.3917 29.4311 19.4463 29.3842 19.4858C29.3373 19.5252 29.278 19.5468 29.2167 19.5469C29.2014 19.5468 29.1861 19.5455 29.171 19.5429C28.3378 19.3999 27.4862 19.3999 26.653 19.5429C26.5848 19.555 26.5147 19.5394 26.458 19.4997C26.4013 19.46 26.3627 19.3995 26.3507 19.3313C26.3386 19.2632 26.3542 19.193 26.3939 19.1363C26.4336 19.0797 26.4942 19.0411 26.5623 19.029C27.4555 18.8756 28.3684 18.8756 29.2617 19.029C29.3297 19.041 29.3902 19.0794 29.4299 19.1359C29.4697 19.1924 29.4854 19.2623 29.4736 19.3303L29.4733 19.3313Z" fill="white"/>
</svg>
