<svg width="16" height="17" viewBox="0 0 16 17" fill="none" xmlns="http://www.w3.org/2000/svg">
<rect width="16" height="16" rx="2" transform="matrix(1 0 0 -1 0 16.5)" fill="#030A16"/>
<path d="M8 10.9C8.10928 10.9001 8.21734 10.8779 8.31695 10.8348C8.41657 10.7916 8.50545 10.7286 8.57768 10.6498L11.8556 7.07315C11.9592 6.95463 12.0104 6.8019 11.9982 6.64762C11.9861 6.49334 11.9115 6.34976 11.7905 6.24758C11.6694 6.1454 11.5116 6.09272 11.3506 6.10082C11.1896 6.10892 11.0384 6.17714 10.9291 6.29091L8.06281 9.41859C8.05497 9.42718 8.04531 9.43406 8.03448 9.43877C8.02365 9.44348 8.01189 9.44592 8 9.44592C7.98811 9.44592 7.97635 9.44348 7.96552 9.43877C7.95469 9.43406 7.94503 9.42718 7.93719 9.41859L5.07086 6.29091C4.96163 6.17714 4.81036 6.10892 4.6494 6.10082C4.48844 6.09272 4.33057 6.1454 4.20954 6.24758C4.08852 6.34976 4.01394 6.49334 4.00177 6.64762C3.98959 6.8019 4.04077 6.95463 4.14438 7.07315L7.42132 10.6486C7.49367 10.7275 7.58269 10.7907 7.68246 10.8341C7.78224 10.8774 7.89048 10.8999 8 10.9Z" fill="white"/>
</svg>
